<svg version="1.1" id="Layer_1" xmlns="http://www.w3.org/2000/svg" xmlns:xlink="http://www.w3.org/1999/xlink" x="0px" y="0px"
	 width="100%" viewBox="0 0 200 200" enable-background="new 0 0 200 200" xml:space="preserve">
<path fill="#FDFEFE" opacity="1.000000" stroke="none" 
	d="
M128.000000,201.000000 
	C85.333336,201.000000 43.166672,201.000000 1.000006,201.000000 
	C1.000004,134.333344 1.000004,67.666679 1.000002,1.000015 
	C67.666656,1.000010 134.333313,1.000010 200.999969,1.000005 
	C200.999985,67.666649 200.999985,134.333298 201.000000,200.999969 
	C176.833328,201.000000 152.666672,201.000000 128.000000,201.000000 
M58.998241,64.904076 
	C58.998241,82.643448 58.998241,100.382812 58.998241,118.013664 
	C64.363914,118.013664 69.101746,118.013664 74.458595,118.013664 
	C74.458595,109.286308 74.458595,100.907593 74.458595,92.268417 
	C77.736031,92.268417 80.386398,92.299942 83.035667,92.259567 
	C85.692039,92.219101 88.347305,92.106903 91.298813,92.625175 
	C91.650116,93.194977 92.001419,93.764786 91.869263,94.909302 
	C89.217323,102.737587 86.565384,110.565880 83.828339,118.645401 
	C85.391624,118.734268 86.375961,118.829659 87.361221,118.840256 
	C99.897591,118.975021 99.796692,118.934319 104.191841,107.137550 
	C104.742653,105.659157 106.972664,103.957672 108.525536,103.852745 
	C114.310127,103.461861 120.144058,103.865334 125.944649,103.620041 
	C128.879471,103.495941 129.906403,104.717812 130.743225,107.304276 
	C134.774673,119.764740 134.848770,119.741196 148.017395,118.838348 
	C148.676651,118.793152 149.452209,118.922684 149.957199,118.615303 
	C150.384216,118.355370 150.497177,117.579475 151.557419,117.003708 
	C152.633148,117.018364 153.708862,117.033020 155.350067,117.618614 
	C162.555038,118.001854 169.815094,119.129486 176.952591,118.601219 
	C188.922073,117.715332 189.636581,116.391678 189.148453,104.358406 
	C189.122177,103.710854 188.970551,103.068390 188.843979,102.193550 
	C177.050949,106.416252 165.287064,109.500496 156.015320,97.834785 
	C150.642059,91.074158 150.608505,77.584793 155.742569,70.909698 
	C164.864212,59.050083 176.697769,61.055305 189.170563,65.543594 
	C189.170563,61.378914 189.385269,57.557274 189.045792,53.785519 
	C188.937439,52.581692 187.519409,50.716515 186.429306,50.496136 
	C167.352829,46.639668 148.186798,48.657524 137.329559,71.487404 
	C136.779694,72.729736 136.229813,73.972076 135.153000,74.700920 
	C133.931076,71.096741 132.765366,67.472321 131.477173,63.891987 
	C126.691391,50.590626 126.676262,50.596195 112.439552,50.867069 
	C112.108055,50.873379 111.690193,50.737331 111.458916,50.889721 
	C110.122368,51.770329 108.135147,52.437969 107.632233,53.686760 
	C103.590096,63.723682 99.830673,73.874458 95.443680,83.709496 
	C95.201981,83.382111 94.960289,83.054726 94.851044,81.876869 
	C93.733360,81.178787 92.636688,79.920357 91.494446,79.877525 
	C85.907738,79.668060 80.308884,79.782623 74.549240,79.782623 
	C74.549240,73.935997 74.549240,68.721176 74.549240,62.896076 
	C82.568314,62.896076 90.278389,62.896076 97.976738,62.896076 
	C97.976738,58.506893 97.976738,54.735172 97.976738,50.398842 
	C91.274429,50.398842 84.828690,50.297932 78.389198,50.454399 
	C76.180458,50.508068 73.987358,51.205704 71.124008,51.100285 
	C67.150063,50.765438 63.176113,50.430592 59.077892,50.085274 
	C59.077892,55.370075 59.077892,59.667595 58.998241,64.904076 
M17.617071,109.873634 
	C27.921053,120.655663 40.847084,120.889130 54.273346,118.859886 
	C55.084988,118.737213 56.285301,117.464256 56.335468,116.665642 
	C56.560043,113.090668 56.433174,109.493607 56.433174,105.910332 
	C33.865967,106.580414 26.236181,101.573502 25.748470,86.387390 
	C25.543966,80.019608 26.532557,74.085464 31.096800,69.246986 
	C38.123886,61.797691 47.019394,62.221508 56.149132,63.823441 
	C56.282909,62.724495 56.449551,62.071339 56.428318,61.424343 
	C56.004177,48.498455 59.362534,49.930954 44.854370,49.893009 
	C30.266928,49.854866 18.677986,55.847549 12.676203,69.416039 
	C6.556736,83.250580 7.199174,96.988708 17.617071,109.873634 
M189.617157,136.621613 
	C189.577347,126.611725 190.328674,128.406891 181.511566,128.361343 
	C163.725082,128.269455 145.937805,128.330002 128.150864,128.349457 
	C126.396751,128.351379 124.642807,128.504272 122.763268,128.593002 
	C122.763268,136.225464 122.763268,143.304733 122.763268,150.660141 
	C145.032913,150.660141 167.039444,150.660141 189.598099,150.660141 
	C189.598099,146.142868 189.598099,141.862595 189.617157,136.621613 
z"/>
<path fill="#214E9A" opacity="1.000000" stroke="none" 
	d="
M150.749130,117.031944 
	C150.497177,117.579475 150.384216,118.355370 149.957199,118.615303 
	C149.452209,118.922684 148.676651,118.793152 148.017395,118.838348 
	C134.848770,119.741196 134.774673,119.764740 130.743225,107.304276 
	C129.906403,104.717812 128.879471,103.495941 125.944649,103.620041 
	C120.144058,103.865334 114.310127,103.461861 108.525536,103.852745 
	C106.972664,103.957672 104.742653,105.659157 104.191841,107.137550 
	C99.796692,118.934319 99.897591,118.975021 87.361221,118.840256 
	C86.375961,118.829659 85.391624,118.734268 83.828339,118.645401 
	C86.565384,110.565880 89.217323,102.737587 92.359802,94.366745 
	C93.895164,90.546272 94.939987,87.268349 95.984818,83.990425 
	C99.830673,73.874458 103.590096,63.723682 107.632233,53.686760 
	C108.135147,52.437969 110.122368,51.770329 111.458916,50.889721 
	C111.690193,50.737331 112.108055,50.873379 112.439552,50.867069 
	C126.676262,50.596195 126.691391,50.590626 131.477173,63.891987 
	C132.765366,67.472321 133.931076,71.096741 135.470703,75.333290 
	C140.775314,89.654419 145.762222,103.343185 150.749130,117.031944 
M125.470703,91.673309 
	C123.014900,83.687134 120.559105,75.700951 118.103302,67.714775 
	C117.364815,67.710617 116.626328,67.706459 115.887840,67.702309 
	C113.595612,75.814507 111.303391,83.926712 109.175507,92.804573 
	C114.529297,94.815720 119.760216,93.964867 125.470703,91.673309 
z"/>
<path fill="#204E9A" opacity="1.000000" stroke="none" 
	d="
M17.371796,109.617081 
	C7.199174,96.988708 6.556736,83.250580 12.676203,69.416039 
	C18.677986,55.847549 30.266928,49.854866 44.854370,49.893009 
	C59.362534,49.930954 56.004177,48.498455 56.428318,61.424343 
	C56.449551,62.071339 56.282909,62.724495 56.149132,63.823441 
	C47.019394,62.221508 38.123886,61.797691 31.096800,69.246986 
	C26.532557,74.085464 25.543966,80.019608 25.748470,86.387390 
	C26.236181,101.573502 33.865967,106.580414 56.433174,105.910332 
	C56.433174,109.493607 56.560043,113.090668 56.335468,116.665642 
	C56.285301,117.464256 55.084988,118.737213 54.273346,118.859886 
	C40.847084,120.889130 27.921053,120.655663 17.371796,109.617081 
z"/>
<path fill="#214E9A" opacity="1.000000" stroke="none" 
	d="
M137.851517,71.002991 
	C148.186798,48.657524 167.352829,46.639668 186.429306,50.496136 
	C187.519409,50.716515 188.937439,52.581692 189.045792,53.785519 
	C189.385269,57.557274 189.170563,61.378914 189.170563,65.543594 
	C176.697769,61.055305 164.864212,59.050083 155.742569,70.909698 
	C150.608505,77.584793 150.642059,91.074158 156.015320,97.834785 
	C165.287064,109.500496 177.050949,106.416252 188.843979,102.193550 
	C188.970551,103.068390 189.122177,103.710854 189.148453,104.358406 
	C189.636581,116.391678 188.922073,117.715332 176.952591,118.601219 
	C169.815094,119.129486 162.555038,118.001854 154.922714,117.022583 
	C153.986237,116.016510 153.199707,115.707397 153.008438,115.181702 
	C147.897186,101.133141 142.838913,87.065247 137.816055,72.984795 
	C137.608353,72.402504 137.829941,71.667076 137.851517,71.002991 
z"/>
<path fill="#646462" opacity="1.000000" stroke="none" 
	d="
M91.003059,92.026138 
	C88.347305,92.106903 85.692039,92.219101 83.035667,92.259567 
	C80.386398,92.299942 77.736031,92.268417 74.458595,92.268417 
	C74.458595,100.907593 74.458595,109.286308 74.458595,118.013664 
	C69.101746,118.013664 64.363914,118.013664 58.998241,118.013664 
	C58.998241,100.382812 58.998241,82.643448 59.326958,64.292419 
	C60.794441,62.168312 61.933212,60.655869 63.041313,59.105244 
	C63.010639,59.067066 63.106522,59.079884 63.454773,59.039375 
	C66.464386,56.535625 69.125755,54.072384 71.787117,51.609138 
	C73.987358,51.205704 76.180458,50.508068 78.389198,50.454399 
	C84.828690,50.297932 91.274429,50.398842 97.976738,50.398842 
	C97.976738,54.735172 97.976738,58.506893 97.976738,62.896076 
	C90.278389,62.896076 82.568314,62.896076 74.549240,62.896076 
	C74.549240,68.721176 74.549240,73.935997 74.549240,79.782623 
	C80.308884,79.782623 85.907738,79.668060 91.494446,79.877525 
	C92.636688,79.920357 93.733360,81.178787 94.529465,82.545670 
	C93.139603,86.151695 92.071335,89.088913 91.003059,92.026138 
z"/>
<path fill="#6F6F6E" opacity="1.000000" stroke="none" 
	d="
M189.607635,137.101974 
	C189.598099,141.862595 189.598099,146.142868 189.598099,150.660141 
	C167.039444,150.660141 145.032913,150.660141 122.763268,150.660141 
	C122.763268,143.304733 122.763268,136.225464 122.763268,128.593002 
	C124.642807,128.504272 126.396751,128.351379 128.150864,128.349457 
	C145.937805,128.330002 163.725082,128.269455 181.511566,128.361343 
	C190.328674,128.406891 189.577347,126.611725 189.607635,137.101974 
M135.012375,132.711105 
	C135.012375,132.711105 135.013992,132.802750 134.339523,132.370880 
	C128.291397,132.483856 125.097237,135.244965 125.309929,140.176300 
	C125.505066,144.700714 128.821686,147.012848 135.605286,146.883469 
	C136.109161,146.878189 136.613022,146.872894 137.905029,146.898041 
	C138.627075,145.134140 139.349121,143.370255 140.082657,141.578247 
	C142.713852,142.519165 141.869659,148.490982 147.048996,146.398575 
	C146.121078,144.537460 145.254959,142.800323 144.388840,141.063187 
	C145.494431,138.690582 146.747162,135.701996 145.759628,134.064056 
	C144.907028,132.649902 141.514221,132.735901 139.227020,132.238586 
	C138.601364,132.102554 137.913193,132.254059 136.163223,132.415268 
	C135.810150,132.512924 135.457062,132.610580 135.012375,132.711105 
M163.986252,141.855804 
	C165.079666,143.481979 165.844376,145.985367 167.337479,146.544861 
	C170.123749,147.588928 173.295074,147.394592 175.698837,144.305313 
	C176.442261,145.251251 177.185669,146.197189 178.688370,148.109268 
	C179.100632,145.057922 179.293762,143.628540 179.502533,142.083328 
	C180.433914,141.915558 181.494156,142.046432 181.961685,141.581406 
	C183.507706,140.043671 185.756500,138.383545 185.937958,136.588638 
	C186.062943,135.352371 183.414642,133.120911 181.633926,132.596100 
	C179.617859,132.001923 177.186218,132.817810 174.323730,132.453552 
	C170.650528,132.079895 172.280975,134.925995 171.823380,136.532181 
	C171.126083,138.979706 170.357132,141.406830 169.618607,143.842606 
	C165.442749,142.441269 167.595490,138.862366 166.971878,136.228912 
	C166.661713,134.919098 166.147598,133.657608 165.725739,132.374252 
	C164.393341,133.134521 163.060928,133.894791 161.551331,134.756165 
	C158.789398,131.848526 155.350937,131.055405 151.528000,133.425751 
	C148.050919,135.581680 147.857773,139.206696 149.111191,142.237976 
	C149.931473,144.221710 152.558945,146.178818 154.731613,146.717545 
	C158.182617,147.573257 161.342987,146.344803 162.488190,141.726578 
	C162.981949,141.509613 163.475708,141.292664 163.986252,141.855804 
z"/>
<path fill="#D4E6F7" opacity="1.000000" stroke="none" 
	d="
M137.590546,71.245193 
	C137.829941,71.667076 137.608353,72.402504 137.816055,72.984795 
	C142.838913,87.065247 147.897186,101.133141 153.008438,115.181702 
	C153.199707,115.707397 153.986237,116.016510 154.639984,116.737122 
	C153.708862,117.033020 152.633148,117.018364 151.153275,117.017822 
	C145.762222,103.343185 140.775314,89.654419 135.734161,75.590034 
	C136.229813,73.972076 136.779694,72.729736 137.590546,71.245193 
z"/>
<path fill="#426194" opacity="1.000000" stroke="none" 
	d="
M71.455566,51.354713 
	C69.125755,54.072384 66.464386,56.535625 63.551620,58.706696 
	C64.743370,56.589237 66.186531,54.763954 67.629684,52.938667 
	C67.438698,52.444550 67.247711,51.950432 67.056725,51.456314 
	C64.712662,52.275795 61.597404,52.467228 60.261456,54.107689 
	C59.133606,55.492619 59.038006,59.159615 63.071983,59.143421 
	C61.933212,60.655869 60.794441,62.168312 59.366783,63.822937 
	C59.077892,59.667595 59.077892,55.370075 59.077892,50.085274 
	C63.176113,50.430592 67.150063,50.765438 71.455566,51.354713 
z"/>
<path fill="#CCD4DB" opacity="1.000000" stroke="none" 
	d="
M91.150940,92.325653 
	C92.071335,89.088913 93.139603,86.151695 94.463242,82.970901 
	C94.960289,83.054726 95.201981,83.382111 95.714249,83.849960 
	C94.939987,87.268349 93.895164,90.546272 92.601532,94.079391 
	C92.001419,93.764786 91.650116,93.194977 91.150940,92.325653 
z"/>
<path fill="#F0F6FC" opacity="1.000000" stroke="none" 
	d="
M109.011154,92.038910 
	C111.303391,83.926712 113.595612,75.814507 115.887840,67.702309 
	C116.626328,67.706459 117.364815,67.710617 118.103302,67.714775 
	C120.559105,75.700951 123.014900,83.687134 124.754608,91.815414 
	C119.029396,91.984642 114.020279,92.011772 109.011154,92.038910 
z"/>
<path fill="#2A538D" opacity="1.000000" stroke="none" 
	d="
M109.093330,92.421738 
	C114.020279,92.011772 119.029396,91.984642 124.493652,92.042465 
	C119.760216,93.964867 114.529297,94.815720 109.093330,92.421738 
z"/>
<path fill="#F3F3F3" opacity="1.000000" stroke="none" 
	d="
M162.024460,142.056870 
	C161.342987,146.344803 158.182617,147.573257 154.731613,146.717545 
	C152.558945,146.178818 149.931473,144.221710 149.111191,142.237976 
	C147.857773,139.206696 148.050919,135.581680 151.528000,133.425751 
	C155.350937,131.055405 158.789398,131.848526 161.551331,134.756165 
	C163.060928,133.894791 164.393341,133.134521 165.725739,132.374252 
	C166.147598,133.657608 166.661713,134.919098 166.971878,136.228912 
	C167.595490,138.862366 165.442749,142.441269 169.618607,143.842606 
	C170.357132,141.406830 171.126083,138.979706 171.823380,136.532181 
	C172.280975,134.925995 170.650528,132.079895 174.642822,132.880829 
	C174.966476,133.504440 174.969711,133.700790 175.002701,134.353577 
	C175.034424,137.505035 175.035049,140.200089 175.024841,143.174622 
	C175.010773,143.640564 175.007553,143.826996 175.004349,144.013443 
	C173.295074,147.394592 170.123749,147.588928 167.337479,146.544861 
	C165.844376,145.985367 165.079666,143.481979 163.992325,141.082550 
	C163.780716,139.351547 163.563034,138.393814 163.345352,137.436066 
	C162.905060,137.471985 162.464752,137.507904 162.024460,137.543808 
	C162.024460,139.048172 162.024460,140.552521 162.024460,142.056870 
M159.172104,138.787338 
	C157.741211,137.594147 156.310318,136.400955 154.879410,135.207779 
	C153.896423,136.893005 152.183121,138.570358 152.164841,140.265976 
	C152.150589,141.588104 154.077469,143.832596 155.434784,144.083801 
	C158.426071,144.637405 159.245728,142.250610 159.172104,138.787338 
z"/>
<path fill="#ECECEC" opacity="1.000000" stroke="none" 
	d="
M137.253708,132.273621 
	C137.913193,132.254059 138.601364,132.102554 139.227020,132.238586 
	C141.514221,132.735901 144.907028,132.649902 145.759628,134.064056 
	C146.747162,135.701996 145.494431,138.690582 144.388840,141.063187 
	C145.254959,142.800323 146.121078,144.537460 147.048996,146.398575 
	C141.869659,148.490982 142.713852,142.519165 140.082657,141.578247 
	C139.349121,143.370255 138.627075,145.134140 137.446777,146.504044 
	C136.743469,144.401321 136.498428,142.692581 136.265259,140.570801 
	C136.286591,138.780380 136.296051,137.403000 136.491486,135.757507 
	C136.869537,134.417465 137.061630,133.345551 137.253708,132.273621 
M139.897293,136.614059 
	C139.897293,137.604462 139.897293,138.594879 139.897293,140.864929 
	C141.467468,138.769638 142.257431,137.715469 143.489624,136.071167 
	C141.957031,136.071167 141.213760,136.071167 139.897293,136.614059 
z"/>
<path fill="#EEEEEE" opacity="1.000000" stroke="none" 
	d="
M175.351593,144.159378 
	C175.007553,143.826996 175.010773,143.640564 175.349854,142.950775 
	C175.447662,139.597336 175.209625,136.747253 174.971603,133.897156 
	C174.969711,133.700790 174.966476,133.504440 174.948593,133.164337 
	C177.186218,132.817810 179.617859,132.001923 181.633926,132.596100 
	C183.414642,133.120911 186.062943,135.352371 185.937958,136.588638 
	C185.756500,138.383545 183.507706,140.043671 181.961685,141.581406 
	C181.494156,142.046432 180.433914,141.915558 179.502533,142.083328 
	C179.293762,143.628540 179.100632,145.057922 178.688370,148.109268 
	C177.185669,146.197189 176.442261,145.251251 175.351593,144.159378 
z"/>
<path fill="#EDEDEC" opacity="1.000000" stroke="none" 
	d="
M134.849823,146.826904 
	C128.821686,147.012848 125.505066,144.700714 125.309929,140.176300 
	C125.097237,135.244965 128.291397,132.483856 134.672424,132.564514 
	C135.005325,132.758163 134.996735,132.728043 134.991089,133.098877 
	C134.926834,134.208557 134.868225,134.947372 134.403625,135.747650 
	C132.724579,136.046829 130.958923,135.859039 130.297363,136.624939 
	C129.372589,137.695572 128.944870,139.478928 128.950577,140.954819 
	C128.953613,141.737076 130.462112,143.255020 131.045563,143.144547 
	C132.407532,142.886673 133.621094,141.845123 134.919678,141.529053 
	C134.912994,143.567062 134.881409,145.196991 134.849823,146.826904 
z"/>
<path fill="#AAAAAA" opacity="1.000000" stroke="none" 
	d="
M135.227554,146.855194 
	C134.881409,145.196991 134.912994,143.567062 135.259827,141.499313 
	C135.801178,141.035614 136.027283,141.009735 136.253387,140.983856 
	C136.498428,142.692581 136.743469,144.401321 137.052704,146.488831 
	C136.613022,146.872894 136.109161,146.878189 135.227554,146.855194 
z"/>
<path fill="#EAEAE8" opacity="1.000000" stroke="none" 
	d="
M162.256317,141.891724 
	C162.024460,140.552521 162.024460,139.048172 162.024460,137.543808 
	C162.464752,137.507904 162.905060,137.471985 163.345352,137.436066 
	C163.563034,138.393814 163.780716,139.351547 163.983932,140.692505 
	C163.475708,141.292664 162.981949,141.509613 162.256317,141.891724 
z"/>
<path fill="#AAAAAA" opacity="1.000000" stroke="none" 
	d="
M134.809631,135.686203 
	C134.868225,134.947372 134.926834,134.208557 135.004639,133.052795 
	C135.023865,132.635880 135.103989,132.708237 135.103989,132.708237 
	C135.457062,132.610580 135.810150,132.512924 136.708466,132.344452 
	C137.061630,133.345551 136.869537,134.417465 136.117828,135.670380 
	C135.308701,135.796326 135.059174,135.741272 134.809631,135.686203 
z"/>
<path fill="#ECECEC" opacity="1.000000" stroke="none" 
	d="
M135.058182,132.709671 
	C135.103989,132.708237 135.023865,132.635880 135.010300,132.681961 
	C134.996735,132.728043 135.005325,132.758163 135.009659,132.780457 
	C135.013992,132.802750 135.012375,132.711105 135.058182,132.709671 
z"/>
<path fill="#26509C" opacity="1.000000" stroke="none" 
	d="
M63.041309,59.105244 
	C59.038006,59.159615 59.133606,55.492619 60.261456,54.107689 
	C61.597404,52.467228 64.712662,52.275795 67.056725,51.456314 
	C67.247711,51.950432 67.438698,52.444550 67.629684,52.938667 
	C66.186531,54.763954 64.743370,56.589237 63.203369,58.747204 
	C63.106522,59.079884 63.010639,59.067066 63.041309,59.105244 
z"/>
<path fill="#6B6B69" opacity="1.000000" stroke="none" 
	d="
M159.193512,139.210754 
	C159.245728,142.250610 158.426071,144.637405 155.434784,144.083801 
	C154.077469,143.832596 152.150589,141.588104 152.164841,140.265976 
	C152.183121,138.570358 153.896423,136.893005 154.879410,135.207779 
	C156.310318,136.400955 157.741211,137.594147 159.193512,139.210754 
z"/>
<path fill="#A1A1A1" opacity="1.000000" stroke="none" 
	d="
M175.002701,134.353577 
	C175.209625,136.747253 175.447662,139.597336 175.360687,142.671295 
	C175.035049,140.200089 175.034424,137.505035 175.002701,134.353577 
z"/>
<path fill="#707070" opacity="1.000000" stroke="none" 
	d="
M134.403625,135.747650 
	C135.059174,135.741272 135.308701,135.796326 135.931854,135.938507 
	C136.296051,137.403000 136.286591,138.780380 136.265259,140.570801 
	C136.027283,141.009735 135.801178,141.035614 135.234924,141.091217 
	C133.621094,141.845123 132.407532,142.886673 131.045563,143.144547 
	C130.462112,143.255020 128.953613,141.737076 128.950577,140.954819 
	C128.944870,139.478928 129.372589,137.695572 130.297363,136.624939 
	C130.958923,135.859039 132.724579,136.046829 134.403625,135.747650 
z"/>
<path fill="#6F6F6E" opacity="1.000000" stroke="none" 
	d="
M140.183899,136.342621 
	C141.213760,136.071167 141.957031,136.071167 143.489624,136.071167 
	C142.257431,137.715469 141.467468,138.769638 139.897293,140.864929 
	C139.897293,138.594879 139.897293,137.604462 140.183899,136.342621 
z"/>
</svg>